<svg width="23" height="21" viewBox="0 0 23 21" fill="none" xmlns="http://www.w3.org/2000/svg">
<path d="M20.5922 1.47337C17.9957 -0.742025 13.9842 -0.409259 11.5 2.15714C9.01582 -0.409259 5.0043 -0.746583 2.40782 1.47337C-0.970307 4.35886 -0.476166 9.06315 1.93164 11.5566L9.81094 19.7025C10.2602 20.1675 10.8621 20.4273 11.5 20.4273C12.1424 20.4273 12.7398 20.172 13.1891 19.7071L21.0683 11.5612C23.4717 9.06771 23.9748 4.36341 20.5922 1.47337ZM19.532 10.0204L11.6527 18.1663C11.5449 18.2757 11.4551 18.2757 11.3473 18.1663L3.46797 10.0204C1.82832 8.32469 1.4959 5.11555 3.7959 3.15087C5.54336 1.66027 8.23867 1.88363 9.92773 3.62951L11.5 5.25687L13.0723 3.62951C14.7703 1.87451 17.4656 1.66027 19.2041 3.14631C21.4996 5.111 21.1582 8.33836 19.532 10.0204Z" fill="white"/>
</svg>
